<svg width="161" height="85" viewBox="0 0 161 85" fill="none" xmlns="http://www.w3.org/2000/svg">
<path d="M99.5177 26.4845C101.433 26.3599 103.241 26.4766 104.877 27.599C106.371 28.6245 107.426 30.3494 107.678 32.1426C107.863 33.4624 107.615 34.7825 107.031 35.9752C105.643 38.8166 101.43 43.1206 99.3196 45.8349C95.358 50.8539 91.3406 55.8277 87.2673 60.7563C77.6342 72.4487 68.6006 82.74 52.6025 84.6689C40.0843 86.1778 29.5537 82.4671 19.7761 74.8164C17.4559 72.7275 11.2189 66.6599 10.8403 63.469C10.7791 62.955 10.8873 62.4462 11.2591 62.0651C12.3663 60.9294 23.287 61.4468 25.5265 61.5251C28.0712 63.8089 30.1965 65.9602 33.2263 67.6524C43.9983 73.6696 56.1192 72.4824 65.5013 64.465C69.6542 60.9163 73.2183 56.3236 76.6904 52.122C81.3411 46.4495 85.9455 40.7398 90.5036 34.9929C93.0095 31.8645 95.4671 27.6151 99.5177 26.4845Z" fill="#068B8A"/>
<path d="M111.083 0.167125C111.109 0.162318 111.135 0.154763 111.161 0.152016C120.378 -0.823382 131.32 3.00816 138.698 8.40289C141.68 10.5837 149.573 17.8565 149.979 21.492C150.062 22.2346 149.813 22.7513 149.336 23.2972C147.949 24.0796 137.665 23.6453 135.37 23.6337C134.09 22.5154 132.944 21.2667 131.621 20.187C125.853 15.4813 118.264 12.9829 110.824 13.7636C100.912 14.8036 94.9672 20.4101 88.7299 27.5885C86.0241 30.7073 83.3795 33.8775 80.7963 37.099C77.946 40.7744 74.9387 44.358 72.0393 47.9987C69.794 50.8181 66.8225 55.2028 64.0813 57.3887C63.2573 58.0455 62.2023 58.4235 61.1709 58.5997C59.2788 58.9224 57.3751 58.521 55.8297 57.3657C54.304 56.2248 53.504 54.833 53.2991 52.9443C53.171 51.7612 53.1985 50.2678 53.7533 49.1863C55.0662 46.6281 57.6048 44.1974 59.4072 41.952C63.3731 36.936 67.3734 31.9474 71.408 26.9863C83.3225 12.4192 91.0138 2.17217 111.083 0.167125Z" fill="#FDDC04"/>
<path d="M142.99 27.6796C143.256 27.6535 143.522 27.6341 143.789 27.6213C144.055 27.6082 144.322 27.6018 144.589 27.6021C144.856 27.6021 145.123 27.6087 145.389 27.622C145.656 27.6352 145.922 27.655 146.188 27.6814C146.453 27.7077 146.718 27.7405 146.982 27.7799C147.246 27.8193 147.509 27.865 147.771 27.9172C148.033 27.9694 148.293 28.028 148.552 28.093C148.811 28.158 149.068 28.2294 149.323 28.3072C149.579 28.3848 149.832 28.4687 150.083 28.5589C150.334 28.6491 150.583 28.7453 150.83 28.8477C151.076 28.95 151.32 29.0582 151.562 29.1724C151.803 29.2869 152.041 29.4072 152.276 29.5333C152.512 29.6592 152.744 29.7909 152.972 29.9285C153.201 30.0658 153.426 30.2087 153.648 30.3573C153.87 30.5058 154.088 30.6596 154.302 30.8187C154.517 30.978 154.727 31.1425 154.933 31.3121C155.139 31.4817 155.341 31.6562 155.539 31.8356C155.736 32.0151 155.929 32.1992 156.118 32.3881C156.306 32.5771 156.49 32.7706 156.669 32.9686C156.848 33.1666 157.022 33.3688 157.191 33.5753C157.361 33.7817 157.525 33.9923 157.683 34.207C157.842 34.4215 157.995 34.6398 158.143 34.8621C158.292 35.0841 158.434 35.3097 158.571 35.5388C158.708 35.7679 158.839 36.0003 158.965 36.2361C159.09 36.4716 159.21 36.7101 159.324 36.9516C159.437 37.1931 159.545 37.4372 159.647 37.6839C159.749 37.9307 159.845 38.1797 159.934 38.431C160.024 38.6825 160.107 38.936 160.184 39.1915C160.261 39.4471 160.332 39.7045 160.396 39.9636C160.461 40.2225 160.519 40.4828 160.571 40.7447C160.623 41.0065 160.668 41.2695 160.706 41.5337C160.745 41.7978 160.777 42.0627 160.803 42.3285C160.829 42.5942 160.848 42.8604 160.861 43.1271C160.874 43.3937 160.88 43.6605 160.879 43.9274C160.879 44.1942 160.872 44.461 160.858 44.7276C160.845 44.9941 160.825 45.2602 160.798 45.5259C160.772 45.7914 160.738 46.0561 160.699 46.32C160.659 46.5841 160.613 46.847 160.561 47.1086C160.508 47.3705 160.449 47.6307 160.384 47.8894C160.318 48.1482 160.247 48.4054 160.169 48.6608C160.091 48.916 160.007 49.1692 159.916 49.4203C159.826 49.6716 159.729 49.9204 159.627 50.1667C159.524 50.4132 159.416 50.6569 159.301 50.898C159.186 51.139 159.066 51.3771 158.94 51.6124C158.813 51.8475 158.681 52.0793 158.543 52.308C158.406 52.5367 158.263 52.7619 158.114 52.9837C157.965 53.2052 157.811 53.423 157.652 53.637C157.492 53.851 157.328 54.061 157.158 54.267C156.988 54.473 156.813 54.6748 156.634 54.8723C156.454 55.0696 156.269 55.2625 156.08 55.4508C155.891 55.6392 155.698 55.8228 155.5 56.0015C155.301 56.1803 155.099 56.3541 154.892 56.5231C154.685 56.692 154.474 56.8557 154.26 57.0144C154.045 57.1727 153.827 57.3259 153.604 57.4737C153.382 57.6214 153.156 57.7636 152.927 57.9005C152.698 58.0371 152.465 58.1681 152.229 58.2933C151.994 58.4185 151.755 58.5378 151.513 58.6514C151.272 58.7651 151.028 58.8727 150.781 58.9741C150.534 59.0757 150.285 59.1712 150.033 59.2604C149.781 59.3497 149.528 59.4328 149.273 59.5097C149.017 59.5866 148.76 59.6571 148.5 59.7212C148.241 59.7855 147.981 59.8433 147.719 59.8946C147.457 59.9461 147.194 59.991 146.93 60.0295C146.666 60.0679 146.401 60.0999 146.135 60.1253C145.87 60.1507 145.604 60.1696 145.337 60.1819C145.071 60.1943 144.805 60.2001 144.538 60.1994C144.272 60.1987 144.005 60.1915 143.739 60.1778C143.473 60.1641 143.207 60.1438 142.942 60.117C142.677 60.0902 142.413 60.057 142.149 60.0171C141.885 59.9773 141.623 59.931 141.362 59.8784C141.1 59.8258 140.84 59.7668 140.582 59.7016C140.323 59.6361 140.067 59.5644 139.812 59.4863C139.557 59.4085 139.304 59.3244 139.053 59.234C138.803 59.1436 138.554 59.0471 138.308 58.9446C138.062 58.8418 137.819 58.7332 137.578 58.6187C137.338 58.5043 137.1 58.384 136.865 58.2579C136.63 58.1316 136.399 57.9996 136.17 57.862C135.942 57.7245 135.717 57.5814 135.496 57.4329C135.274 57.2843 135.057 57.1304 134.843 56.9711C134.629 56.812 134.42 56.6477 134.214 56.4781C134.008 56.3085 133.807 56.134 133.61 55.9545C133.413 55.7753 133.22 55.5912 133.032 55.4021C132.844 55.2133 132.661 55.02 132.482 54.8222C132.303 54.6242 132.13 54.4221 131.961 54.2159C131.792 54.0094 131.629 53.799 131.47 53.5845C131.312 53.37 131.159 53.1519 131.011 52.9301C130.864 52.7081 130.721 52.4827 130.585 52.2538C130.448 52.0249 130.317 51.7928 130.192 51.5575C130.067 51.3222 129.947 51.084 129.834 50.843C129.72 50.6018 129.613 50.3579 129.511 50.1114C129.41 49.8649 129.314 49.6161 129.225 49.365C129.136 49.1139 129.053 48.8608 128.976 48.6055C128.898 48.3503 128.828 48.0934 128.763 47.8348C128.699 47.5761 128.641 47.316 128.59 47.0544C128.538 46.793 128.493 46.5304 128.454 46.2664C128.415 46.0028 128.383 45.7383 128.358 45.473C128.332 45.2077 128.313 44.942 128.3 44.6758C128.287 44.4094 128.281 44.143 128.282 43.8765C128.282 43.6099 128.289 43.3435 128.302 43.0773C128.316 42.8111 128.336 42.5453 128.362 42.28C128.389 42.0148 128.422 41.7504 128.461 41.487C128.501 41.2233 128.547 40.9607 128.599 40.6994C128.651 40.438 128.71 40.1781 128.775 39.9197C128.84 39.6612 128.912 39.4046 128.989 39.1496C129.067 38.8946 129.151 38.6417 129.241 38.3908C129.331 38.14 129.427 37.8914 129.53 37.6451C129.632 37.399 129.74 37.1556 129.855 36.9149C129.969 36.6738 130.089 36.4359 130.215 36.2011C130.341 35.9662 130.473 35.7345 130.61 35.5058C130.747 35.2774 130.89 35.0524 131.038 34.8308C131.187 34.6095 131.34 34.3918 131.499 34.1778C131.658 33.9638 131.822 33.7539 131.992 33.5482C132.161 33.3422 132.335 33.1405 132.514 32.9432C132.694 32.7459 132.878 32.5532 133.066 32.3651C133.255 32.1767 133.448 31.9931 133.646 31.8144C133.843 31.6354 134.045 31.4614 134.252 31.2925C134.458 31.1236 134.668 30.9598 134.882 30.8012C135.096 30.6426 135.315 30.4893 135.536 30.3415C135.758 30.1936 135.983 30.0512 136.212 29.9144C136.441 29.7775 136.673 29.6463 136.908 29.5209C137.143 29.3953 137.381 29.2755 137.622 29.1618C137.863 29.048 138.107 28.9402 138.353 28.8384C138.6 28.7365 138.848 28.6407 139.099 28.551C139.35 28.4615 139.603 28.3781 139.858 28.3007C140.114 28.2236 140.37 28.1527 140.629 28.0882C140.888 28.0234 141.148 27.9652 141.409 27.9135C141.671 27.8615 141.933 27.816 142.197 27.7771C142.461 27.7382 142.725 27.7057 142.99 27.6796Z" fill="url(#paint0_linear_13242_3420)"/>
<path d="M13.7281 25.1336C13.9917 25.0917 14.2563 25.0563 14.5218 25.0275C14.7873 24.9987 15.0533 24.9764 15.3197 24.9606C15.5864 24.9448 15.8531 24.9356 16.12 24.9331C16.3871 24.9306 16.654 24.9346 16.9207 24.9451C17.1876 24.9554 17.454 24.9725 17.7199 24.9963C17.9859 25.0198 18.2512 25.0499 18.5158 25.0866C18.7801 25.1232 19.0435 25.1663 19.3058 25.216C19.5683 25.2657 19.8294 25.3217 20.0889 25.3842C20.3485 25.4467 20.6064 25.5155 20.8628 25.5906C21.1189 25.6659 21.3731 25.7474 21.6253 25.835C21.8775 25.9227 22.1275 26.0164 22.3751 26.1162C22.6226 26.2162 22.8675 26.3223 23.1099 26.4345C23.3522 26.5464 23.5918 26.6643 23.8285 26.7881C24.0649 26.9119 24.2982 27.0415 24.5285 27.1767C24.7588 27.312 24.9855 27.4529 25.2086 27.5994C25.432 27.7459 25.6516 27.8978 25.8675 28.055C26.0833 28.2122 26.295 28.3746 26.5026 28.5422C26.7105 28.7099 26.9141 28.8826 27.1134 29.0603C27.3128 29.2379 27.5076 29.4203 27.6978 29.6075C27.8882 29.795 28.0738 29.9869 28.2546 30.1833C28.4357 30.3797 28.6117 30.5804 28.7827 30.7855C28.9537 30.9906 29.1195 31.1997 29.2802 31.4127C29.4408 31.6261 29.5963 31.8432 29.7464 32.064C29.8966 32.2849 30.0411 32.5093 30.18 32.7373C30.319 32.9653 30.4523 33.1965 30.58 33.4308C30.7075 33.6654 30.8293 33.903 30.9453 34.1436C31.0611 34.3841 31.1711 34.6273 31.2753 34.8732C31.3792 35.1192 31.477 35.3676 31.5688 35.6182C31.6606 35.8691 31.7461 36.122 31.8253 36.3769C31.9047 36.6319 31.9777 36.8886 32.0443 37.147C32.1109 37.4057 32.1712 37.6658 32.2253 37.9274C32.279 38.1888 32.3264 38.4515 32.3674 38.7154C32.4084 38.9793 32.4428 39.244 32.4707 39.5095C32.4987 39.775 32.5201 40.0411 32.5349 40.3077C32.5498 40.5744 32.558 40.8411 32.5597 41.108C32.5615 41.3751 32.5567 41.6421 32.5452 41.909C32.5338 42.1757 32.5158 42.442 32.4913 42.7079C32.4666 42.9737 32.4355 43.2387 32.3979 43.5031C32.3604 43.7675 32.3163 44.0308 32.2658 44.2931C32.2154 44.5552 32.1585 44.816 32.0951 45.0755C32.0317 45.3348 31.962 45.5925 31.886 45.8484C31.81 46.1043 31.7278 46.3582 31.6392 46.6102C31.5506 46.8622 31.456 47.1118 31.3553 47.359C31.2543 47.6062 31.1474 47.8509 31.0346 48.093C30.9217 48.335 30.8031 48.574 30.6786 48.8103C30.5538 49.0462 30.4235 49.2791 30.2875 49.5089C30.1513 49.7387 30.0096 49.965 29.8625 50.1877C29.7153 50.4104 29.5627 50.6294 29.4048 50.8448C29.2466 51.06 29.0834 51.2712 28.9152 51.4786C28.7468 51.6858 28.5734 51.8887 28.3951 52.0873C28.2165 52.286 28.0333 52.4802 27.8454 52.67C27.6575 52.8597 27.4651 53.0447 27.2683 53.2248C27.0712 53.4051 26.8698 53.5805 26.664 53.7508C26.4585 53.9211 26.2488 54.0862 26.035 54.2462C25.8212 54.4062 25.6037 54.5608 25.3824 54.71C25.161 54.8595 24.936 55.0033 24.7074 55.1416C24.4789 55.2796 24.2473 55.412 24.0125 55.5388C23.7774 55.6659 23.5394 55.7869 23.2983 55.9021C23.0576 56.017 22.814 56.126 22.5677 56.2293C22.3215 56.3325 22.0728 56.4295 21.8217 56.5204C21.5706 56.6113 21.3175 56.696 21.0622 56.7745C20.8068 56.8527 20.5498 56.9248 20.2911 56.9908C20.0323 57.0565 19.772 57.1157 19.5104 57.1686C19.2486 57.2217 18.9857 57.2683 18.7218 57.3083C18.459 57.3482 18.1953 57.3816 17.9307 57.4086C17.6664 57.4356 17.4014 57.4561 17.1359 57.47C16.8704 57.484 16.6047 57.4914 16.3387 57.4924C16.073 57.4933 15.8074 57.4878 15.5419 57.4759C15.2761 57.4638 15.011 57.4451 14.7464 57.4199C14.4818 57.395 14.2179 57.3635 13.9547 57.3255C13.6914 57.2875 13.4294 57.2431 13.1684 57.1923C12.9075 57.1415 12.6479 57.0844 12.3898 57.021C12.1316 56.9573 11.8752 56.8875 11.6207 56.8116C11.366 56.7353 11.1132 56.653 10.8623 56.5647C10.6117 56.4761 10.3633 56.3815 10.1173 56.2808C9.87121 56.1803 9.6278 56.0737 9.38701 55.9611C9.14599 55.8485 8.90794 55.7301 8.67288 55.6058C8.43804 55.4817 8.20618 55.3518 7.97729 55.2161C7.74864 55.0806 7.52342 54.9395 7.30163 54.7928C7.08007 54.6463 6.86205 54.4944 6.64759 54.3372C6.43335 54.1797 6.223 54.0172 6.01654 53.8496C5.81032 53.6821 5.60821 53.5095 5.41023 53.3319C5.21224 53.1545 5.01871 52.9723 4.82965 52.7853C4.64082 52.5983 4.45657 52.4069 4.2769 52.2109C4.09722 52.0148 3.92258 51.8145 3.75298 51.6101C3.58315 51.4055 3.41845 51.1969 3.25892 50.9842C3.09916 50.7716 2.94489 50.5552 2.79611 50.335C2.64711 50.1148 2.5036 49.8911 2.36558 49.6638C2.22756 49.4365 2.09516 49.206 1.96836 48.9723C1.84178 48.7386 1.72093 48.502 1.6058 48.2623C1.49067 48.0227 1.38137 47.7804 1.27792 47.5355C1.17469 47.2906 1.07753 47.0433 0.986429 46.7935C0.895333 46.5436 0.810414 46.2917 0.731678 46.0379C0.652941 45.784 0.580383 45.5284 0.514006 45.2709C0.447629 45.0134 0.387666 44.7544 0.334106 44.4939C0.280547 44.2337 0.23339 43.9722 0.192649 43.7094C0.151907 43.4467 0.117578 43.1831 0.0896541 42.9187C0.06173 42.6544 0.0403251 42.3894 0.0254475 42.1239C0.01057 41.8586 0.00221629 41.593 0.000385205 41.3271C-0.00144588 41.0613 0.00325164 40.7956 0.0144671 40.5298C0.0254536 40.2643 0.043075 39.9992 0.0673369 39.7343C0.0913699 39.4695 0.121926 39.2055 0.159005 38.9423C0.196085 38.6791 0.239575 38.4169 0.289472 38.1557C0.339369 37.8946 0.395676 37.6348 0.458391 37.3764C0.521106 37.1182 0.589997 36.8615 0.665072 36.6063C0.740375 36.3513 0.821861 36.0984 0.909524 35.8475C0.996958 35.5964 1.09057 35.3476 1.19036 35.1011C1.29016 34.8548 1.39602 34.6111 1.50795 34.3698C1.61965 34.1286 1.73717 33.8902 1.86054 33.6547C1.98391 33.4192 2.11301 33.1868 2.24782 32.9577C2.38264 32.7286 2.52294 32.5029 2.66874 32.2807C2.81477 32.0584 2.96607 31.8398 3.12263 31.6249C3.27919 31.4102 3.44089 31.1993 3.60775 30.9922C3.77461 30.7853 3.94639 30.5826 4.12309 30.3841C4.30002 30.1857 4.48163 29.9916 4.66794 29.8018C4.85426 29.6123 5.04515 29.4274 5.24062 29.247C5.43608 29.0667 5.6358 28.8912 5.83973 28.7207C6.04367 28.5504 6.25173 28.385 6.4639 28.2246C6.67585 28.0644 6.89169 27.9094 7.11142 27.7597C7.33115 27.61 7.55443 27.4657 7.78126 27.3268C8.00786 27.1881 8.23776 27.055 8.471 26.9275C8.70446 26.8 8.94079 26.6782 9.17997 26.5622C9.41916 26.4462 9.66109 26.3362 9.90577 26.2323C10.1505 26.1281 10.3974 26.03 10.6467 25.938C10.8962 25.846 11.1477 25.7602 11.4013 25.6805C11.6549 25.6009 11.9104 25.5275 12.1676 25.4605C12.4249 25.3932 12.6836 25.3323 12.9439 25.2778C13.2041 25.2233 13.4655 25.1753 13.7281 25.1336Z" fill="url(#paint1_linear_13242_3420)"/>
<path d="M133.254 63.9259C136.509 63.9091 143.058 63.4981 145.959 64.0234C146.781 64.1724 147.679 64.4319 148.098 65.2298C148.39 65.7881 148.319 66.393 148.098 66.9568C147.554 68.3414 146.239 69.6615 145.245 70.7403C140.76 75.6059 135.624 79.2312 129.562 81.8727C118.976 86.486 107.102 85.6493 96.5649 81.5304C93.2593 80.1272 88.2597 77.6721 86.2489 74.5656C86.1903 74.4768 86.134 74.3867 86.08 74.2951C86.0259 74.2036 85.9743 74.1106 85.9251 74.0163C85.8757 73.9223 85.8288 73.8269 85.7844 73.7303C85.74 73.6337 85.698 73.536 85.6584 73.4371C85.6188 73.3385 85.5818 73.2388 85.5475 73.1381C85.5129 73.0376 85.4809 72.9362 85.4517 72.8339C85.4224 72.7318 85.3957 72.6289 85.3717 72.5252C85.3476 72.4218 85.3262 72.3178 85.3075 72.2132C85.2887 72.1083 85.2726 72.0032 85.2591 71.8976C85.2455 71.7924 85.2347 71.6866 85.2264 71.5804C85.2184 71.4744 85.2131 71.3683 85.2103 71.2621C85.2076 71.1557 85.2076 71.0494 85.2103 70.9432C85.2131 70.8368 85.2184 70.7305 85.2264 70.6246C85.2345 70.5186 85.2451 70.4128 85.2584 70.3073C85.2719 70.2018 85.288 70.0968 85.3068 69.9922C85.3255 69.8876 85.3469 69.7834 85.371 69.6797C85.8077 67.7595 86.8415 66.1582 88.5698 65.1763C93.0269 62.6436 96.432 66.0573 100.149 68.1049C101.091 68.6119 102.06 69.0623 103.054 69.4562C104.049 69.8504 105.063 70.1851 106.097 70.4605C106.538 70.5804 106.981 70.6896 107.428 70.788C107.874 70.8862 108.322 70.9736 108.773 71.0503C109.223 71.127 109.675 71.1928 110.128 71.2477C110.582 71.3024 111.037 71.3461 111.492 71.3789C111.948 71.4118 112.404 71.4336 112.861 71.4441C113.318 71.4549 113.775 71.4545 114.231 71.4431C114.688 71.4316 115.144 71.4091 115.6 71.3754C116.056 71.342 116.51 71.2975 116.964 71.2419C117.417 71.1865 117.869 71.1201 118.319 71.0428C118.769 70.9652 119.218 70.8768 119.664 70.7777C120.11 70.6786 120.553 70.5687 120.994 70.4481C121.434 70.3277 121.872 70.1966 122.306 70.0547C122.741 69.913 123.171 69.7608 123.598 69.598C124.025 69.4355 124.448 69.2627 124.867 69.0796C125.285 68.8965 125.699 68.7033 126.108 68.5001C126.518 68.297 126.922 68.0842 127.321 67.8615C129.337 66.7123 131.079 65.1529 133.087 64.0182C133.142 63.987 133.198 63.9568 133.254 63.9259Z" fill="#FDDC04"/>
<path d="M15.3443 14.6673C16.7125 12.8463 18.4954 11.3137 20.2553 9.88543C26.6261 4.71421 33.8837 1.58442 42.0193 0.456927C52.2131 -0.955529 64.0421 1.83951 72.2617 8.1372C73.944 9.42605 75.1715 11.0253 75.4691 13.1745C75.7249 15.0192 75.3205 16.728 74.1796 18.2105C73.0971 19.6171 71.5504 20.5935 69.7695 20.7799C66.1453 21.1593 63.2686 18.3457 60.2658 16.7819C60.0347 16.6626 59.8019 16.5466 59.5675 16.4337C59.3331 16.3207 59.0971 16.211 58.8596 16.1048C58.6222 15.9986 58.3834 15.8956 58.143 15.7958C57.9027 15.6963 57.661 15.5999 57.4179 15.5068C57.1751 15.4138 56.9309 15.3243 56.6853 15.2383C56.4399 15.152 56.1933 15.0692 55.9454 14.99C55.6975 14.9106 55.4487 14.8347 55.199 14.7624C54.949 14.6899 54.6982 14.621 54.4464 14.5557C54.1946 14.4903 53.9419 14.4282 53.6883 14.3697C53.4347 14.3113 53.1804 14.2565 52.9255 14.2052C52.6705 14.1537 52.4148 14.1059 52.1585 14.0617C51.9021 14.0175 51.6452 13.9768 51.3877 13.9395C51.1302 13.9024 50.8722 13.8688 50.6138 13.8389C50.3552 13.8089 50.0963 13.7826 49.8372 13.7599C49.5781 13.737 49.3187 13.7178 49.0589 13.7022C48.7993 13.6867 48.5396 13.6748 48.2795 13.6665C48.0193 13.658 47.7592 13.6532 47.4991 13.6521C47.2389 13.6512 46.9788 13.6537 46.7188 13.6596C46.4585 13.6658 46.1985 13.6756 45.9387 13.6888C45.6789 13.7021 45.4194 13.719 45.16 13.7396C44.9007 13.7602 44.6417 13.7844 44.3831 13.8121C44.1242 13.8398 43.8659 13.871 43.6082 13.9058C43.3505 13.9408 43.0932 13.9794 42.8364 14.0215C42.5796 14.0634 42.3235 14.109 42.068 14.1582C41.8126 14.2074 41.5578 14.2601 41.3038 14.3164C41.0497 14.3725 40.7966 14.4323 40.5443 14.4957C40.2919 14.5588 40.0404 14.6255 39.79 14.6958C39.5394 14.7661 39.2899 14.8398 39.0416 14.9169C38.793 14.9941 38.5457 15.0747 38.2996 15.159C38.0534 15.243 37.8083 15.3304 37.5646 15.4213C37.3208 15.5121 37.0783 15.6063 36.8371 15.7038C36.5958 15.8016 36.3561 15.9025 36.1178 16.0066C33.0148 17.3563 30.7031 19.3919 27.858 21.0749C23.4709 21.2462 19.0797 21.0313 14.693 21.1985C14.4465 21.1209 14.1969 21.0484 13.9652 20.9313C13.3595 20.6251 12.7189 20.0789 12.5895 19.3812C12.2973 17.8026 14.3923 15.8089 15.3443 14.6673Z" fill="url(#paint2_linear_13242_3420)"/>
<path d="M14.693 21.1976C14.4465 21.1201 14.1969 21.0476 13.9652 20.9305C13.3595 20.6243 12.7189 20.0781 12.5895 19.3804C12.2973 17.8018 14.3923 15.8081 15.3443 14.6665C15.6149 15.1159 15.8679 15.3363 15.6636 15.8822C15.4216 16.5287 14.9478 16.6249 14.9385 17.4403C15.346 17.865 16.191 17.7513 16.2758 18.1915C15.355 18.5935 14.5756 18.8118 14.0373 19.7004C13.9919 20.1107 13.9621 20.4354 14.2392 20.7795C14.3593 20.9292 14.5451 21.074 14.693 21.1976Z" fill="#068B8A"/>
<defs>
<linearGradient id="paint0_linear_13242_3420" x1="128.582" y1="43.9298" x2="160.31" y2="43.6236" gradientUnits="userSpaceOnUse">
<stop stop-color="#FFF200"/>
<stop offset="1" stop-color="#FBC30C"/>
</linearGradient>
<linearGradient id="paint1_linear_13242_3420" x1="0.387118" y1="41.1713" x2="32.0959" y2="41.2275" gradientUnits="userSpaceOnUse">
<stop stop-color="#0B6C6F"/>
<stop offset="1" stop-color="#04A6A2"/>
</linearGradient>
<linearGradient id="paint2_linear_13242_3420" x1="15.8307" y1="7.89165" x2="74.6982" y2="17.2297" gradientUnits="userSpaceOnUse">
<stop stop-color="#0B6E71"/>
<stop offset="1" stop-color="#02A8A3"/>
</linearGradient>
</defs>
</svg>
